<svg width="211" height="40" viewBox="0 0 211 40" fill="none" xmlns="http://www.w3.org/2000/svg">
<path d="M54.7005 30.3679C53.1474 30.3679 51.7577 30.1022 50.5315 29.5708C49.3258 29.0395 48.3653 28.2629 47.6501 27.2411C46.9552 26.2193 46.5976 24.9829 46.5772 23.532H50.9607C50.9811 24.1655 51.1446 24.7377 51.4512 25.2486C51.7577 25.7595 52.1767 26.1682 52.708 26.4748C53.2598 26.7609 53.9137 26.9039 54.6699 26.9039C55.3238 26.9039 55.8858 26.8017 56.3558 26.5974C56.8463 26.3726 57.2244 26.066 57.4901 25.6778C57.7557 25.2895 57.8886 24.8297 57.8886 24.2983C57.8886 23.6852 57.7353 23.1743 57.4287 22.7656C57.1426 22.3569 56.7339 22.0095 56.2026 21.7234C55.6917 21.4373 55.0888 21.1818 54.394 20.957C53.7196 20.7118 53.0043 20.4563 52.2482 20.1907C50.552 19.6389 49.2543 18.9032 48.3551 17.9836C47.4763 17.0639 47.037 15.848 47.037 14.3357C47.037 13.0482 47.3435 11.9447 47.9566 11.025C48.5901 10.1054 49.4587 9.40037 50.5622 8.9099C51.6658 8.41944 52.9226 8.1742 54.3327 8.1742C55.7836 8.1742 57.0507 8.42966 58.1338 8.94056C59.2373 9.43103 60.1059 10.1463 60.7394 11.0864C61.3934 12.0264 61.7306 13.13 61.751 14.397H57.3368C57.3163 13.927 57.1733 13.4876 56.9076 13.0789C56.6624 12.6497 56.315 12.3125 55.8654 12.0673C55.4158 11.8016 54.8844 11.6688 54.2714 11.6688C53.74 11.6483 53.2496 11.7301 52.8 11.914C52.3708 12.0979 52.0234 12.3738 51.7577 12.7417C51.5125 13.0891 51.3899 13.5285 51.3899 14.0598C51.3899 14.5707 51.5125 14.9999 51.7577 15.3473C52.0234 15.6947 52.381 16.0012 52.8306 16.2669C53.2802 16.5121 53.8115 16.7472 54.4246 16.972C55.0377 17.1763 55.7019 17.3909 56.4172 17.6157C57.4798 17.9836 58.4608 18.4229 59.36 18.9338C60.2592 19.4243 60.9744 20.068 61.5058 20.865C62.0371 21.6621 62.3028 22.7145 62.3028 24.0224C62.3028 25.1464 62.0064 26.1887 61.4138 27.1492C60.8211 28.1097 59.9628 28.8862 58.8388 29.4789C57.7353 30.0715 56.3558 30.3679 54.7005 30.3679ZM71.4842 30.3679C70.2376 30.3679 69.1647 30.1124 68.2655 29.6015C67.3867 29.0702 66.7123 28.3038 66.2423 27.3024C65.7723 26.2806 65.5373 25.0238 65.5373 23.532V14.5503H69.6756V23.1028C69.6756 24.3494 69.931 25.2895 70.4419 25.923C70.9733 26.5565 71.7805 26.8733 72.8636 26.8733C73.5584 26.8733 74.1715 26.72 74.7029 26.4135C75.2342 26.0865 75.6532 25.6267 75.9597 25.034C76.2867 24.4209 76.4502 23.675 76.4502 22.7963V14.5503H80.5578V30H76.9406L76.6034 27.4864C76.1538 28.3651 75.4897 29.0702 74.6109 29.6015C73.7322 30.1124 72.6899 30.3679 71.4842 30.3679ZM84.7026 30V14.5503H88.8409V30H84.7026ZM86.7871 12.4351C86.0514 12.4351 85.4383 12.2206 84.9478 11.7914C84.4778 11.3418 84.2428 10.7798 84.2428 10.1054C84.2428 9.43103 84.4778 8.87925 84.9478 8.45009C85.4383 8.0005 86.0514 7.7757 86.7871 7.7757C87.5432 7.7757 88.1563 8.0005 88.6263 8.45009C89.1168 8.87925 89.362 9.43103 89.362 10.1054C89.362 10.7798 89.1168 11.3418 88.6263 11.7914C88.1563 12.2206 87.5432 12.4351 86.7871 12.4351ZM99.9811 30C98.898 30 97.9477 29.8365 97.1303 29.5095C96.3332 29.1621 95.7099 28.6001 95.2603 27.8236C94.8108 27.0265 94.586 25.9434 94.586 24.5742V18.0142H91.9497V14.5503H94.586L95.0458 10.3507H98.7243V14.5503H102.801V18.0142H98.7243V24.6355C98.7243 25.3303 98.8775 25.8106 99.1841 26.0763C99.4906 26.3419 100.012 26.4748 100.747 26.4748H102.771V30H99.9811ZM113.313 30.3679C111.76 30.3679 110.381 30.0409 109.175 29.3869C107.99 28.7125 107.06 27.7827 106.385 26.5974C105.731 25.3917 105.404 24.002 105.404 22.4284C105.404 20.814 105.731 19.3936 106.385 18.1675C107.06 16.9209 107.99 15.9502 109.175 15.2553C110.36 14.5401 111.74 14.1824 113.313 14.1824C114.846 14.1824 116.185 14.5196 117.329 15.194C118.473 15.8684 119.362 16.7778 119.996 17.9222C120.629 19.0667 120.946 20.3644 120.946 21.8153C120.946 22.0197 120.946 22.2547 120.946 22.5204C120.946 22.7656 120.926 23.0211 120.885 23.2867H108.347V20.7731H116.777C116.716 19.7717 116.358 18.9849 115.704 18.4127C115.071 17.8405 114.274 17.5544 113.313 17.5544C112.618 17.5544 111.975 17.7179 111.382 18.0449C110.789 18.3514 110.319 18.8316 109.972 19.4856C109.645 20.1396 109.482 20.9672 109.482 21.9686V22.8576C109.482 23.6955 109.635 24.4312 109.941 25.0647C110.268 25.6778 110.718 26.158 111.29 26.5054C111.862 26.8324 112.526 26.9959 113.283 26.9959C114.039 26.9959 114.662 26.8324 115.153 26.5054C115.663 26.1784 116.042 25.7595 116.287 25.2486H120.517C120.231 26.2091 119.751 27.0776 119.076 27.8542C118.402 28.6308 117.574 29.2439 116.593 29.6935C115.612 30.1431 114.519 30.3679 113.313 30.3679Z" fill="#21093B"/>
<path d="M134.053 30.3679C131.907 30.3679 130.058 29.908 128.504 28.9884C126.972 28.0483 125.786 26.7507 124.948 25.0953C124.131 23.4196 123.722 21.4883 123.722 19.3017C123.722 17.115 124.131 15.1838 124.948 13.508C125.786 11.8323 126.972 10.5244 128.504 9.5843C130.058 8.64424 131.907 8.1742 134.053 8.1742C136.648 8.1742 138.774 8.81794 140.429 10.1054C142.084 11.3929 143.116 13.2117 143.525 15.5619H139.019C138.753 14.4174 138.191 13.5285 137.333 12.895C136.495 12.241 135.391 11.914 134.022 11.914C132.755 11.914 131.662 12.2206 130.742 12.8336C129.843 13.4263 129.148 14.2744 128.658 15.3779C128.167 16.4611 127.922 17.769 127.922 19.3017C127.922 20.814 128.167 22.1219 128.658 23.2254C129.148 24.329 129.843 25.1771 130.742 25.7697C131.662 26.3624 132.755 26.6587 134.022 26.6587C135.391 26.6587 136.495 26.3624 137.333 25.7697C138.171 25.1566 138.722 24.3085 138.988 23.2254H143.525C143.116 25.453 142.084 27.2002 140.429 28.4673C138.774 29.7343 136.648 30.3679 134.053 30.3679ZM146.967 30V7.92897H151.105V30H146.967ZM162.435 30.3679C160.964 30.3679 159.635 30.0307 158.45 29.3563C157.285 28.6614 156.355 27.7112 155.66 26.5054C154.986 25.2793 154.649 23.8794 154.649 22.3058C154.649 20.6913 154.986 19.2812 155.66 18.0755C156.355 16.8493 157.295 15.8991 158.481 15.2247C159.666 14.5298 160.994 14.1824 162.466 14.1824C163.957 14.1824 165.286 14.5298 166.451 15.2247C167.636 15.8991 168.566 16.8493 169.24 18.0755C169.935 19.2812 170.282 20.6811 170.282 22.2751C170.282 23.8692 169.935 25.2793 169.24 26.5054C168.566 27.7112 167.636 28.6614 166.451 29.3563C165.265 30.0307 163.927 30.3679 162.435 30.3679ZM162.435 26.7813C163.13 26.7813 163.743 26.6178 164.274 26.2908C164.826 25.9639 165.255 25.4632 165.562 24.7888C165.889 24.1144 166.052 23.2765 166.052 22.2751C166.052 21.2738 165.889 20.4461 165.562 19.7921C165.255 19.1178 164.826 18.6171 164.274 18.2901C163.743 17.9427 163.14 17.769 162.466 17.769C161.812 17.769 161.209 17.9427 160.657 18.2901C160.105 18.6171 159.666 19.1178 159.339 19.7921C159.032 20.4461 158.879 21.2738 158.879 22.2751C158.879 23.2765 159.032 24.1144 159.339 24.7888C159.666 25.4632 160.095 25.9639 160.626 26.2908C161.178 26.6178 161.781 26.7813 162.435 26.7813ZM179.612 30.3679C178.365 30.3679 177.293 30.1124 176.393 29.6015C175.515 29.0702 174.84 28.3038 174.37 27.3024C173.9 26.2806 173.665 25.0238 173.665 23.532V14.5503H177.804V23.1028C177.804 24.3494 178.059 25.2895 178.57 25.923C179.101 26.5565 179.908 26.8733 180.992 26.8733C181.686 26.8733 182.299 26.72 182.831 26.4135C183.362 26.0865 183.781 25.6267 184.088 25.034C184.415 24.4209 184.578 23.675 184.578 22.7963V14.5503H188.686V30H185.069L184.731 27.4864C184.282 28.3651 183.618 29.0702 182.739 29.6015C181.86 30.1124 180.818 30.3679 179.612 30.3679ZM199.605 30.3679C198.195 30.3679 196.928 30.0204 195.804 29.3256C194.7 28.6308 193.832 27.6703 193.198 26.4441C192.565 25.2179 192.248 23.8385 192.248 22.3058C192.248 20.7322 192.565 19.3426 193.198 18.1368C193.852 16.9107 194.741 15.9502 195.865 15.2553C197.01 14.5401 198.287 14.1824 199.697 14.1824C200.801 14.1824 201.771 14.3868 202.609 14.7955C203.447 15.2042 204.122 15.7867 204.632 16.5428V7.92897H208.771V30H205.092L204.632 27.8849C204.326 28.314 203.938 28.7227 203.468 29.111C203.018 29.4993 202.476 29.8059 201.843 30.0307C201.209 30.2555 200.463 30.3679 199.605 30.3679ZM200.586 26.7507C201.403 26.7507 202.119 26.5667 202.732 26.1989C203.365 25.8106 203.856 25.2793 204.203 24.6049C204.551 23.9305 204.724 23.1539 204.724 22.2751C204.724 21.3964 204.551 20.6198 204.203 19.9454C203.856 19.271 203.365 18.7499 202.732 18.3821C202.119 17.9938 201.403 17.7996 200.586 17.7996C199.809 17.7996 199.104 17.9938 198.471 18.3821C197.837 18.7499 197.337 19.271 196.969 19.9454C196.621 20.6198 196.448 21.3862 196.448 22.2445C196.448 23.1437 196.621 23.9305 196.969 24.6049C197.337 25.2793 197.827 25.8106 198.44 26.1989C199.074 26.5667 199.789 26.7507 200.586 26.7507Z" fill="#7B1FE4"/>
<path d="M23.3519 10.1668C24.4483 11.2116 25.5607 12.6971 25.7977 14.2285C25.7421 14.2426 25.6865 14.2566 25.6293 14.2711C23.5528 14.8062 21.6006 15.5683 20.1642 17.2464C20.131 17.3128 20.0978 17.3792 20.0636 17.4476C19.9972 17.4476 19.9308 17.4476 19.8624 17.4476C19.8359 17.5206 19.8095 17.5937 19.7822 17.6689C19.6593 17.9549 19.5123 18.1801 19.3342 18.4348C18.5768 19.612 18.2592 20.9071 18.0516 22.2764C17.9689 22.2546 17.8861 22.2328 17.8009 22.2103C16.3899 21.8584 15.2784 21.9101 13.9648 22.6033C13.2028 23.0613 12.4881 23.5514 11.9218 24.242C11.461 24.7908 10.96 25.3053 10.4678 25.8258C10.3348 25.9674 10.2037 26.1108 10.0733 26.2547C8.68742 27.7351 6.93299 28.6911 4.9738 29.1171C4.90688 29.1363 4.83997 29.1554 4.77103 29.1752C3.58402 29.4276 2.49989 29.1846 1.45285 28.6141C1.08555 28.3554 0.790498 28.0845 0.578902 27.6835C0.541166 27.6145 0.50343 27.5456 0.46455 27.4745C0.0980197 26.6416 -0.00799164 25.9303 0.000461042 25.0177C0.00136879 24.9013 0.00227653 24.7848 0.00321178 24.6649C0.0201368 23.8316 0.0824272 23.137 0.446867 22.377C0.499645 22.2634 0.552424 22.1498 0.606802 22.0327C1.43199 20.3815 2.90531 19.1632 4.63035 18.5283C5.21198 18.3495 5.77288 18.2395 6.38218 18.2524C6.39255 18.1321 6.40292 18.0117 6.41361 17.8878C6.46154 17.4917 6.58451 17.192 6.78457 16.844C6.85096 16.844 6.91736 16.844 6.98577 16.844C6.98577 16.7777 6.98577 16.7113 6.98577 16.6429C7.47417 16.3339 7.80967 16.2065 8.39414 16.1399C8.40283 16.04 8.41152 15.9402 8.42047 15.8373C8.58986 14.1203 9.19898 12.4598 10.3055 11.1099C10.3719 11.1099 10.4383 11.1099 10.5067 11.1099C10.5441 11.0236 10.5441 11.0236 10.5822 10.9355C10.7273 10.6723 10.8973 10.4915 11.1103 10.28C11.2161 10.1734 11.2161 10.1734 11.3241 10.0647C11.5127 9.90276 11.5127 9.90276 11.7139 9.90276C11.7139 9.83636 11.7139 9.76997 11.7139 9.70156C11.9686 9.52919 12.2216 9.37134 12.4872 9.21743C12.5649 9.17224 12.6425 9.12704 12.7224 9.08048C13.6392 8.55805 14.5898 8.16038 15.6372 7.99139C15.7032 7.98023 15.7692 7.96908 15.8373 7.95759C18.6017 7.57234 21.2382 8.37165 23.3519 10.1668Z" fill="#7B1FE4"/>
<path d="M27.0678 16.316C27.1919 16.3139 27.316 16.3118 27.4439 16.3097C28.1925 16.3065 28.8204 16.3748 29.5199 16.6429C29.6435 16.688 29.7671 16.7332 29.8944 16.7797C30.6338 17.0875 31.2351 17.4198 31.8337 17.9507C31.9182 18.0221 32.0028 18.0936 32.0899 18.1672C32.5574 18.5687 32.5574 18.5687 32.7391 18.7555C32.7391 18.8219 32.7391 18.8883 32.7391 18.9567C32.8387 18.9899 32.9383 19.0231 33.0409 19.0573C34.288 20.7551 34.7521 22.6939 34.5035 24.7776C34.2895 26.1599 33.8256 27.4157 32.9403 28.5135C32.8856 28.5834 32.8308 28.6533 32.7744 28.7253C31.5614 30.1975 29.6836 31.1414 27.8098 31.4309C27.4878 31.4557 27.1682 31.4578 26.8454 31.4558C26.7539 31.456 26.6623 31.4562 26.5679 31.4565C26.264 31.457 25.9602 31.4562 25.6563 31.4553C25.4373 31.4554 25.2183 31.4556 24.9992 31.4559C24.4067 31.4564 23.8142 31.4556 23.2217 31.4546C22.6016 31.4537 21.9815 31.4539 21.3614 31.4539C20.3212 31.4538 19.281 31.453 18.2407 31.4516C17.0366 31.45 15.8324 31.4495 14.6283 31.4495C13.4703 31.4496 12.3124 31.4491 11.1544 31.4483C10.6612 31.4479 10.168 31.4477 9.67471 31.4477C9.09515 31.4476 8.51558 31.447 7.93602 31.4459C7.72274 31.4456 7.50946 31.4455 7.29618 31.4456C7.0064 31.4456 6.71663 31.4451 6.42685 31.4443C6.34132 31.4445 6.2558 31.4446 6.16768 31.4448C5.58898 31.4424 5.58899 31.4424 5.4769 31.3303C5.20085 31.3056 4.92492 31.2917 4.64814 31.2776C4.33633 31.2238 4.20726 31.128 3.96792 30.9279C3.73386 30.8258 3.4991 30.7252 3.26373 30.6261C2.96823 30.4689 2.96823 30.4689 2.76074 30.3243C2.76074 30.2579 2.76074 30.1915 2.76074 30.1231C3.00423 30.1815 3.24345 30.2473 3.48379 30.318C3.61036 30.3533 3.73692 30.3886 3.86733 30.4249C3.93359 30.444 3.99986 30.463 4.06813 30.4827C5.23652 30.7849 6.27183 30.6434 7.38827 30.2237C7.45471 30.1994 7.52116 30.1751 7.58962 30.1501C8.86637 29.679 10.0528 29.1034 11.0098 28.1111C11.1281 28.0071 11.2475 27.9043 11.3682 27.803C12.0858 27.1806 12.7773 26.507 13.3802 25.7722C13.7947 25.2871 14.3032 24.9404 14.8326 24.5902C14.9096 24.539 14.9866 24.4877 15.066 24.435C15.9351 23.9038 17.0681 23.7233 18.0698 23.9316C18.2332 23.9775 18.3944 24.0314 18.5547 24.0872C18.5889 23.9036 18.5889 23.9036 18.6239 23.7162C18.73 23.2857 18.9136 23.0643 19.2589 22.7794C19.5314 22.6432 19.7628 22.6723 20.0637 22.6788C20.0651 22.5996 20.0665 22.5203 20.068 22.4387C20.1458 20.6614 20.9758 19.2283 22.2533 18.0309C23.6408 16.7943 25.2524 16.3234 27.0678 16.316Z" fill="#7B1FE4"/>
<path d="M27.4072 9.60095C28.2704 9.60095 29.1335 9.60095 30.0228 9.60095C30.0228 10.4641 30.0228 11.3272 30.0228 12.2165C29.1597 12.2165 28.2965 12.2165 27.4072 12.2165C27.4072 11.3534 27.4072 10.4902 27.4072 9.60095Z" fill="#21093B"/>
<path d="M28.5137 5.27527C29.3436 5.27527 30.1735 5.27527 31.0286 5.27527C31.0286 6.10521 31.0286 6.93514 31.0286 7.79023C30.1987 7.79023 29.3688 7.79023 28.5137 7.79023C28.5137 6.96029 28.5137 6.13036 28.5137 5.27527Z" fill="#21093B"/>
<path d="M32.0352 8.3938C32.7655 8.3938 33.4958 8.3938 34.2483 8.3938C34.2483 9.12414 34.2483 9.85449 34.2483 10.607C33.518 10.607 32.7876 10.607 32.0352 10.607C32.0352 9.87662 32.0352 9.14628 32.0352 8.3938Z" fill="#21093B"/>
<path d="M33.1416 4.47046C33.8387 4.47046 34.5359 4.47046 35.2542 4.47046C35.2542 5.13441 35.2542 5.79836 35.2542 6.48243C34.557 6.48243 33.8599 6.48243 33.1416 6.48243C33.1416 5.81848 33.1416 5.15453 33.1416 4.47046Z" fill="#21093B"/>
<path d="M31.2305 12.7195C31.828 12.7195 32.4256 12.7195 33.0412 12.7195C33.0412 13.3502 33.0412 13.981 33.0412 14.6309C32.4437 14.6309 31.8461 14.6309 31.2305 14.6309C31.2305 14.0001 31.2305 13.3693 31.2305 12.7195Z" fill="#21093B"/>
<path d="M24.4902 6.78418C25.0878 6.78418 25.6853 6.78418 26.301 6.78418C26.301 7.38173 26.301 7.97929 26.301 8.59495C25.7035 8.59495 25.1059 8.59495 24.4902 8.59495C24.4902 7.9974 24.4902 7.39984 24.4902 6.78418Z" fill="#21093B"/>
<path d="M14.3295 24.892C14.3959 24.9252 14.4623 24.9584 14.5307 24.9926C13.5347 25.9885 12.5388 26.9844 11.5127 28.0105C11.4463 27.9773 11.3799 27.9441 11.3115 27.9099C11.3596 27.8623 11.4078 27.8147 11.4573 27.7657C11.6794 27.5458 11.901 27.3255 12.1226 27.1051C12.1983 27.0303 12.2739 26.9555 12.3519 26.8784C12.7763 26.4559 13.1832 26.0262 13.5697 25.5686C13.8008 25.3116 14.0573 25.1044 14.3295 24.892Z" fill="#7B1FE4"/>
<path d="M19.259 22.7794C19.259 23.0812 19.259 23.0812 19.1187 23.2246C19.0387 23.303 19.0387 23.303 18.9572 23.383C18.858 23.5873 18.858 23.5873 18.7874 23.8043C18.7621 23.8762 18.7368 23.9482 18.7108 24.0224C18.6925 24.077 18.6742 24.1315 18.6554 24.1878C18.423 24.1878 18.1906 24.1878 17.9512 24.1878C17.918 24.1214 17.8848 24.055 17.8506 23.9866C18.083 24.0198 18.3154 24.053 18.5548 24.0872C18.5776 23.9648 18.6004 23.8424 18.6239 23.7162C18.7284 23.2869 18.9185 23.0661 19.259 22.7794Z" fill="#7B1FE4"/>
<path d="M1.55371 29.2177C1.73415 29.3305 1.91434 29.4438 2.09443 29.5572C2.1948 29.6202 2.29517 29.6832 2.39858 29.7482C2.66029 29.9218 2.66029 29.9218 2.86149 30.123C2.82829 30.1894 2.7951 30.2558 2.76089 30.3242C2.44028 30.1798 2.19536 30.0021 1.93096 29.7709C1.85989 29.7097 1.78883 29.6485 1.71561 29.5855C1.55371 29.4188 1.55371 29.4188 1.55371 29.2177Z" fill="#7B1FE4"/>
<path d="M32.9404 19.2584C33.2865 19.3738 33.3306 19.444 33.5189 19.7426C33.564 19.8117 33.6091 19.8808 33.6556 19.952C33.7622 20.204 33.7376 20.314 33.6446 20.5662C33.5603 20.4198 33.4766 20.273 33.3931 20.1261C33.3231 20.0035 33.3231 20.0035 33.2517 19.8785C33.1416 19.6608 33.1416 19.6608 33.1416 19.4596C33.0752 19.4596 33.0088 19.4596 32.9404 19.4596C32.9404 19.3932 32.9404 19.3268 32.9404 19.2584Z" fill="#7B1FE4"/>
<path d="M19.2589 22.7794C19.2589 23.0812 19.2589 23.0812 19.1205 23.2321C19.0666 23.2819 19.0126 23.3317 18.9571 23.383C18.8907 23.4826 18.8243 23.5822 18.7559 23.6848C18.7227 23.6184 18.6895 23.552 18.6553 23.4836C18.8248 23.1446 18.9389 22.9927 19.2589 22.7794Z" fill="#7B1FE4"/>
</svg>
