<svg width="88" height="88" viewBox="0 0 88 88" fill="none" xmlns="http://www.w3.org/2000/svg">
<g filter="url(#filter0_dd_10_960)">
<path d="M12 18C12 9.16344 19.1634 2 28 2H60C68.8366 2 76 9.16344 76 18V50C76 58.8366 68.8366 66 60 66H28C19.1634 66 12 58.8366 12 50V18Z" fill="url(#paint0_linear_10_960)" shape-rendering="crispEdges"/>
<path d="M44 28.6665C50.6274 28.6665 56 26.8756 56 24.6665C56 22.4574 50.6274 20.6665 44 20.6665C37.3726 20.6665 32 22.4574 32 24.6665C32 26.8756 37.3726 28.6665 44 28.6665Z" stroke="white" stroke-width="2.66667" stroke-linecap="round" stroke-linejoin="round"/>
<path d="M32 24.6665V43.3332C32 44.394 33.2643 45.4115 35.5147 46.1616C37.7652 46.9117 40.8174 47.3332 44 47.3332C47.1826 47.3332 50.2348 46.9117 52.4853 46.1616C54.7357 45.4115 56 44.394 56 43.3332V24.6665" stroke="white" stroke-width="2.66667" stroke-linecap="round" stroke-linejoin="round"/>
<path d="M32 34C32 35.0609 33.2643 36.0783 35.5147 36.8284C37.7652 37.5786 40.8174 38 44 38C47.1826 38 50.2348 37.5786 52.4853 36.8284C54.7357 36.0783 56 35.0609 56 34" stroke="white" stroke-width="2.66667" stroke-linecap="round" stroke-linejoin="round"/>
</g>
<defs>
<filter id="filter0_dd_10_960" x="0" y="0" width="88" height="88" filterUnits="userSpaceOnUse" color-interpolation-filters="sRGB">
<feFlood flood-opacity="0" result="BackgroundImageFix"/>
<feColorMatrix in="SourceAlpha" type="matrix" values="0 0 0 0 0 0 0 0 0 0 0 0 0 0 0 0 0 0 127 0" result="hardAlpha"/>
<feMorphology radius="4" operator="erode" in="SourceAlpha" result="effect1_dropShadow_10_960"/>
<feOffset dy="4"/>
<feGaussianBlur stdDeviation="3"/>
<feComposite in2="hardAlpha" operator="out"/>
<feColorMatrix type="matrix" values="0 0 0 0 0 0 0 0 0 0 0 0 0 0 0 0 0 0 0.1 0"/>
<feBlend mode="normal" in2="BackgroundImageFix" result="effect1_dropShadow_10_960"/>
<feColorMatrix in="SourceAlpha" type="matrix" values="0 0 0 0 0 0 0 0 0 0 0 0 0 0 0 0 0 0 127 0" result="hardAlpha"/>
<feMorphology radius="3" operator="erode" in="SourceAlpha" result="effect2_dropShadow_10_960"/>
<feOffset dy="10"/>
<feGaussianBlur stdDeviation="7.5"/>
<feComposite in2="hardAlpha" operator="out"/>
<feColorMatrix type="matrix" values="0 0 0 0 0 0 0 0 0 0 0 0 0 0 0 0 0 0 0.1 0"/>
<feBlend mode="normal" in2="effect1_dropShadow_10_960" result="effect2_dropShadow_10_960"/>
<feBlend mode="normal" in="SourceGraphic" in2="effect2_dropShadow_10_960" result="shape"/>
</filter>
<linearGradient id="paint0_linear_10_960" x1="12" y1="2" x2="76" y2="66" gradientUnits="userSpaceOnUse">
<stop stop-color="#AD46FF"/>
<stop offset="1" stop-color="#8E51FF"/>
</linearGradient>
</defs>
</svg>
